<svg width="118" height="61" viewBox="0 0 118 61" fill="currentColor" xmlns="http://www.w3.org/2000/svg">
<g filter="url(#filter0_d_36_53)">
<ellipse cx="58.5" cy="48" rx="53.5" ry="1" fill="#currentColor"/>
</g>
<path d="M3.05176e-05 39H118L112.882 49.2361C112.035 50.93 110.304 52 108.41 52H7.6929C5.49788 52 3.55953 50.5684 2.91401 48.4704L3.05176e-05 39Z" fill="#currentColor"/>
<path d="M100 39H85V32H100V39ZM100 22H85V17H100V22ZM98 0C99.1046 0 100 0.895431 100 2V12H85V2C85 0.895431 85.8955 5.63724e-08 87 0H98Z" fill="#currentColor"/>
<defs>
<filter id="filter0_d_36_53" x="1" y="47" width="115" height="14" filterUnits="userSpaceOnUse" color-interpolation-filters="sRGB">
<feFlood flood-opacity="0" result="BackgroundImageFix"/>
<feColorMatrix in="SourceAlpha" type="matrix" values="0 0 0 0 0 0 0 0 0 0 0 0 0 0 0 0 0 0 127 0" result="hardAlpha"/>
<feOffset dy="8"/>
<feGaussianBlur stdDeviation="2"/>
<feComposite in2="hardAlpha" operator="out"/>
<feColorMatrix type="matrix" values="0 0 0 0 0 0 0 0 0 0 0 0 0 0 0 0 0 0 0.45 0"/>
<feBlend mode="normal" in2="BackgroundImageFix" result="effect1_dropShadow_36_53"/>
<feBlend mode="normal" in="SourceGraphic" in2="effect1_dropShadow_36_53" result="shape"/>
</filter>
</defs>
</svg>
