<svg width="174" height="80" viewBox="0 0 174 80" fill="currentColor" xmlns="http://www.w3.org/2000/svg">
<g filter="url(#filter0_d_34_11)">
<ellipse cx="73.7838" cy="66.6342" rx="65.2703" ry="0.991871" fill="#currentColor"/>
</g>
<rect x="80" y="36.0001" width="13" height="21" rx="2" fill="#currentColor"/>
<line x1="139.406" y1="11.9138" x2="94.4061" y2="31.9138" stroke="#currentColor" stroke-width="2"/>
<g filter="url(#filter1_d_34_11)">
<path d="M74.2426 31.4977C73.7056 30.7885 73.7016 29.8098 74.2327 29.0962L78.5142 23.3436C79.0453 22.6299 79.9839 22.3529 80.8174 22.6637L91.956 26.8173C92.3399 26.9605 92.6706 27.2181 92.9033 27.5553L98.6515 35.8854C99.1382 36.5908 99.1215 37.5279 98.6098 38.2154L94.2473 44.0768C93.7356 44.7644 92.8428 45.0494 92.0274 44.7857L82.3978 41.6707C82.008 41.5446 81.6663 41.3018 81.4189 40.9751L74.2426 31.4977Z" fill="#currentColor"/>
</g>
<g filter="url(#filter2_d_34_11)">
<rect width="84.3856" height="6.90881" rx="2" transform="matrix(0.954406 -0.29851 -0.29851 -0.954406 73.0623 34.4456)" fill="#currentColor"/>
</g>
<g filter="url(#filter3_d_34_11)">
<rect width="54.3509" height="5.41752" rx="2" transform="matrix(0 1 1 0 146 3.00006)" fill="#currentColor"/>
</g>
<g filter="url(#filter4_d_34_11)">
<circle cx="149.5" cy="56.5001" r="5.5" fill="#currentColor"/>
</g>
<g filter="url(#filter5_d_34_11)">
<circle cx="149" cy="7" r="5" fill="#currentColor"/>
</g>
<g filter="url(#filter6_d_34_11)">
<path d="M164.806 70.1078C160.136 74.4123 152.557 73.7866 147.878 68.7103C143.199 63.6341 149.93 64.4126 154.6 60.1081C157.6 54.6082 160.111 48.0463 164.79 53.1225C169.469 58.1988 169.476 65.8033 164.806 70.1078Z" fill="#currentColor"/>
</g>
<g filter="url(#filter7_i_34_11)">
<path d="M101.216 67.5611L115.405 67.5204C115.416 71.6289 112.248 74.9685 108.33 74.9797C104.412 74.991 101.227 71.6695 101.216 67.5611Z" fill="#currentColor"/>
</g>
<g filter="url(#filter8_i_34_11)">
<path d="M117.297 67.5611L131.486 67.5204C131.497 71.6289 128.329 74.9685 124.411 74.9797C120.493 74.991 117.308 71.6695 117.297 67.5611Z" fill="#currentColor"/>
</g>
<g filter="url(#filter9_i_34_11)">
<path d="M33.1081 67.5611L47.2972 67.5204C47.3079 71.6289 44.1403 74.9685 40.222 74.9797C36.3038 74.991 33.1188 71.6695 33.1081 67.5611Z" fill="#currentColor"/>
</g>
<g filter="url(#filter10_i_34_11)">
<path d="M17.027 67.5611L31.2162 67.5204C31.2269 71.6289 28.0592 74.9685 24.141 74.9797C20.2227 74.991 17.0377 71.6695 17.027 67.5611Z" fill="#currentColor"/>
</g>
<path d="M7 58.0001H139C140.105 58.0001 141 58.8955 141 60.0001V68.0001C141 69.1046 140.105 70.0001 139 70.0001H9C7.89543 70.0001 7 69.1046 7 68.0001V58.0001Z" fill="#currentColor"/>
<rect x="0.945953" y="57.9919" width="6.62162" height="4.95935" fill="#currentColor"/>
<line x1="0.5" y1="57.0001" x2="0.5" y2="63.9432" stroke="#currentColor"/>
<path d="M67.4323 15C68.5369 15 69.4323 15.8955 69.4323 17V55C69.4323 56.1046 68.5369 57 67.4323 57H39.1081V15H67.4323ZM42.7839 18C42.2316 18 41.7839 18.4477 41.7839 19V32C41.7839 32.5523 42.2316 33 42.7839 33H54.1618C54.7141 33 55.1618 32.5523 55.1618 32V19C55.1618 18.4477 54.7141 18 54.1618 18H42.7839ZM59.7302 18C59.1779 18 58.7302 18.4477 58.7302 19V32C58.7302 32.5523 59.1779 33 59.7302 33H65.7565C66.3088 33 66.7565 32.5523 66.7565 32V19C66.7565 18.4477 66.3088 18 65.7565 18H59.7302Z" fill="#currentColor"/>
<path d="M39.1081 57V33H9C7.89543 33 7 33.8955 7 35V55C7 56.1046 7.89543 57 9 57H39.1081Z" fill="#currentColor"/>
<g filter="url(#filter11_i_34_11)">
<path d="M27.5135 15H39.1081V33H24.8378L27.5135 15Z" fill="#currentColor"/>
</g>
<g filter="url(#filter12_i_34_11)">
<rect x="26.6216" y="9.00003" width="46.3784" height="7" rx="2" fill="#currentColor"/>
</g>
<g filter="url(#filter13_i_34_11)">
<rect x="10.5676" y="37" width="21.4054" height="16" rx="2" fill="#currentColor"/>
</g>
<line x1="10.1757" y1="30" x2="10.1757" y2="33" stroke="#currentColor"/>
<defs>
<filter id="filter0_d_34_11" x="4.51352" y="65.6423" width="138.541" height="13.9837" filterUnits="userSpaceOnUse" color-interpolation-filters="sRGB">
<feFlood flood-opacity="0" result="BackgroundImageFix"/>
<feColorMatrix in="SourceAlpha" type="matrix" values="0 0 0 0 0 0 0 0 0 0 0 0 0 0 0 0 0 0 127 0" result="hardAlpha"/>
<feOffset dy="8"/>
<feGaussianBlur stdDeviation="2"/>
<feComposite in2="hardAlpha" operator="out"/>
<feColorMatrix type="matrix" values="0 0 0 0 0 0 0 0 0 0 0 0 0 0 0 0 0 0 0.45 0"/>
<feBlend mode="normal" in2="BackgroundImageFix" result="effect1_dropShadow_34_11"/>
<feBlend mode="normal" in="SourceGraphic" in2="effect1_dropShadow_34_11" result="shape"/>
</filter>
<filter id="filter1_d_34_11" x="69.8371" y="20.5375" width="33.1683" height="30.3454" filterUnits="userSpaceOnUse" color-interpolation-filters="sRGB">
<feFlood flood-opacity="0" result="BackgroundImageFix"/>
<feColorMatrix in="SourceAlpha" type="matrix" values="0 0 0 0 0 0 0 0 0 0 0 0 0 0 0 0 0 0 127 0" result="hardAlpha"/>
<feOffset dy="2"/>
<feGaussianBlur stdDeviation="2"/>
<feComposite in2="hardAlpha" operator="out"/>
<feColorMatrix type="matrix" values="0 0 0 0 0 0 0 0 0 0 0 0 0 0 0 0 0 0 0.15 0"/>
<feBlend mode="normal" in2="BackgroundImageFix" result="effect1_dropShadow_34_11"/>
<feBlend mode="normal" in="SourceGraphic" in2="effect1_dropShadow_34_11" result="shape"/>
</filter>
<filter id="filter2_d_34_11" x="67.5053" y="1.16708" width="89.5899" height="38.7732" filterUnits="userSpaceOnUse" color-interpolation-filters="sRGB">
<feFlood flood-opacity="0" result="BackgroundImageFix"/>
<feColorMatrix in="SourceAlpha" type="matrix" values="0 0 0 0 0 0 0 0 0 0 0 0 0 0 0 0 0 0 127 0" result="hardAlpha"/>
<feOffset dy="2"/>
<feGaussianBlur stdDeviation="2"/>
<feComposite in2="hardAlpha" operator="out"/>
<feColorMatrix type="matrix" values="0 0 0 0 0 0 0 0 0 0 0 0 0 0 0 0 0 0 0.15 0"/>
<feBlend mode="normal" in2="BackgroundImageFix" result="effect1_dropShadow_34_11"/>
<feBlend mode="normal" in="SourceGraphic" in2="effect1_dropShadow_34_11" result="shape"/>
</filter>
<filter id="filter3_d_34_11" x="142" y="1.00006" width="13.4175" height="62.351" filterUnits="userSpaceOnUse" color-interpolation-filters="sRGB">
<feFlood flood-opacity="0" result="BackgroundImageFix"/>
<feColorMatrix in="SourceAlpha" type="matrix" values="0 0 0 0 0 0 0 0 0 0 0 0 0 0 0 0 0 0 127 0" result="hardAlpha"/>
<feOffset dy="2"/>
<feGaussianBlur stdDeviation="2"/>
<feComposite in2="hardAlpha" operator="out"/>
<feColorMatrix type="matrix" values="0 0 0 0 0 0 0 0 0 0 0 0 0 0 0 0 0 0 0.15 0"/>
<feBlend mode="normal" in2="BackgroundImageFix" result="effect1_dropShadow_34_11"/>
<feBlend mode="normal" in="SourceGraphic" in2="effect1_dropShadow_34_11" result="shape"/>
</filter>
<filter id="filter4_d_34_11" x="140" y="49.0001" width="19" height="19" filterUnits="userSpaceOnUse" color-interpolation-filters="sRGB">
<feFlood flood-opacity="0" result="BackgroundImageFix"/>
<feColorMatrix in="SourceAlpha" type="matrix" values="0 0 0 0 0 0 0 0 0 0 0 0 0 0 0 0 0 0 127 0" result="hardAlpha"/>
<feOffset dy="2"/>
<feGaussianBlur stdDeviation="2"/>
<feComposite in2="hardAlpha" operator="out"/>
<feColorMatrix type="matrix" values="0 0 0 0 0 0 0 0 0 0 0 0 0 0 0 0 0 0 0.15 0"/>
<feBlend mode="normal" in2="BackgroundImageFix" result="effect1_dropShadow_34_11"/>
<feBlend mode="normal" in="SourceGraphic" in2="effect1_dropShadow_34_11" result="shape"/>
</filter>
<filter id="filter5_d_34_11" x="140" y="0" width="18" height="18" filterUnits="userSpaceOnUse" color-interpolation-filters="sRGB">
<feFlood flood-opacity="0" result="BackgroundImageFix"/>
<feColorMatrix in="SourceAlpha" type="matrix" values="0 0 0 0 0 0 0 0 0 0 0 0 0 0 0 0 0 0 127 0" result="hardAlpha"/>
<feOffset dy="2"/>
<feGaussianBlur stdDeviation="2"/>
<feComposite in2="hardAlpha" operator="out"/>
<feColorMatrix type="matrix" values="0 0 0 0 0 0 0 0 0 0 0 0 0 0 0 0 0 0 0.15 0"/>
<feBlend mode="normal" in2="BackgroundImageFix" result="effect1_dropShadow_34_11"/>
<feBlend mode="normal" in="SourceGraphic" in2="effect1_dropShadow_34_11" result="shape"/>
</filter>
<filter id="filter6_d_34_11" x="142.295" y="49.2988" width="30.0092" height="29.6689" filterUnits="userSpaceOnUse" color-interpolation-filters="sRGB">
<feFlood flood-opacity="0" result="BackgroundImageFix"/>
<feColorMatrix in="SourceAlpha" type="matrix" values="0 0 0 0 0 0 0 0 0 0 0 0 0 0 0 0 0 0 127 0" result="hardAlpha"/>
<feOffset dy="2"/>
<feGaussianBlur stdDeviation="2"/>
<feComposite in2="hardAlpha" operator="out"/>
<feColorMatrix type="matrix" values="0 0 0 0 0 0 0 0 0 0 0 0 0 0 0 0 0 0 0.15 0"/>
<feBlend mode="normal" in2="BackgroundImageFix" result="effect1_dropShadow_34_11"/>
<feBlend mode="normal" in="SourceGraphic" in2="effect1_dropShadow_34_11" result="shape"/>
</filter>
<filter id="filter7_i_34_11" x="101.216" y="67.5204" width="14.1892" height="10.4593" filterUnits="userSpaceOnUse" color-interpolation-filters="sRGB">
<feFlood flood-opacity="0" result="BackgroundImageFix"/>
<feBlend mode="normal" in="SourceGraphic" in2="BackgroundImageFix" result="shape"/>
<feColorMatrix in="SourceAlpha" type="matrix" values="0 0 0 0 0 0 0 0 0 0 0 0 0 0 0 0 0 0 127 0" result="hardAlpha"/>
<feOffset dy="3"/>
<feGaussianBlur stdDeviation="2"/>
<feComposite in2="hardAlpha" operator="arithmetic" k2="-1" k3="1"/>
<feColorMatrix type="matrix" values="0 0 0 0 0 0 0 0 0 0 0 0 0 0 0 0 0 0 0.25 0"/>
<feBlend mode="normal" in2="shape" result="effect1_innerShadow_34_11"/>
</filter>
<filter id="filter8_i_34_11" x="117.297" y="67.5204" width="14.1892" height="10.4593" filterUnits="userSpaceOnUse" color-interpolation-filters="sRGB">
<feFlood flood-opacity="0" result="BackgroundImageFix"/>
<feBlend mode="normal" in="SourceGraphic" in2="BackgroundImageFix" result="shape"/>
<feColorMatrix in="SourceAlpha" type="matrix" values="0 0 0 0 0 0 0 0 0 0 0 0 0 0 0 0 0 0 127 0" result="hardAlpha"/>
<feOffset dy="3"/>
<feGaussianBlur stdDeviation="2"/>
<feComposite in2="hardAlpha" operator="arithmetic" k2="-1" k3="1"/>
<feColorMatrix type="matrix" values="0 0 0 0 0 0 0 0 0 0 0 0 0 0 0 0 0 0 0.25 0"/>
<feBlend mode="normal" in2="shape" result="effect1_innerShadow_34_11"/>
</filter>
<filter id="filter9_i_34_11" x="33.1081" y="67.5204" width="14.1892" height="10.4593" filterUnits="userSpaceOnUse" color-interpolation-filters="sRGB">
<feFlood flood-opacity="0" result="BackgroundImageFix"/>
<feBlend mode="normal" in="SourceGraphic" in2="BackgroundImageFix" result="shape"/>
<feColorMatrix in="SourceAlpha" type="matrix" values="0 0 0 0 0 0 0 0 0 0 0 0 0 0 0 0 0 0 127 0" result="hardAlpha"/>
<feOffset dy="3"/>
<feGaussianBlur stdDeviation="2"/>
<feComposite in2="hardAlpha" operator="arithmetic" k2="-1" k3="1"/>
<feColorMatrix type="matrix" values="0 0 0 0 0 0 0 0 0 0 0 0 0 0 0 0 0 0 0.25 0"/>
<feBlend mode="normal" in2="shape" result="effect1_innerShadow_34_11"/>
</filter>
<filter id="filter10_i_34_11" x="17.027" y="67.5204" width="14.1892" height="10.4593" filterUnits="userSpaceOnUse" color-interpolation-filters="sRGB">
<feFlood flood-opacity="0" result="BackgroundImageFix"/>
<feBlend mode="normal" in="SourceGraphic" in2="BackgroundImageFix" result="shape"/>
<feColorMatrix in="SourceAlpha" type="matrix" values="0 0 0 0 0 0 0 0 0 0 0 0 0 0 0 0 0 0 127 0" result="hardAlpha"/>
<feOffset dy="3"/>
<feGaussianBlur stdDeviation="2"/>
<feComposite in2="hardAlpha" operator="arithmetic" k2="-1" k3="1"/>
<feColorMatrix type="matrix" values="0 0 0 0 0 0 0 0 0 0 0 0 0 0 0 0 0 0 0.25 0"/>
<feBlend mode="normal" in2="shape" result="effect1_innerShadow_34_11"/>
</filter>
<filter id="filter11_i_34_11" x="21.8378" y="15" width="17.2703" height="22" filterUnits="userSpaceOnUse" color-interpolation-filters="sRGB">
<feFlood flood-opacity="0" result="BackgroundImageFix"/>
<feBlend mode="normal" in="SourceGraphic" in2="BackgroundImageFix" result="shape"/>
<feColorMatrix in="SourceAlpha" type="matrix" values="0 0 0 0 0 0 0 0 0 0 0 0 0 0 0 0 0 0 127 0" result="hardAlpha"/>
<feOffset dx="-3" dy="4"/>
<feGaussianBlur stdDeviation="2"/>
<feComposite in2="hardAlpha" operator="arithmetic" k2="-1" k3="1"/>
<feColorMatrix type="matrix" values="0 0 0 0 0 0 0 0 0 0 0 0 0 0 0 0 0 0 0.16 0"/>
<feBlend mode="normal" in2="shape" result="effect1_innerShadow_34_11"/>
</filter>
<filter id="filter12_i_34_11" x="26.6216" y="9.00003" width="46.3784" height="9" filterUnits="userSpaceOnUse" color-interpolation-filters="sRGB">
<feFlood flood-opacity="0" result="BackgroundImageFix"/>
<feBlend mode="normal" in="SourceGraphic" in2="BackgroundImageFix" result="shape"/>
<feColorMatrix in="SourceAlpha" type="matrix" values="0 0 0 0 0 0 0 0 0 0 0 0 0 0 0 0 0 0 127 0" result="hardAlpha"/>
<feOffset dy="2"/>
<feGaussianBlur stdDeviation="2"/>
<feComposite in2="hardAlpha" operator="arithmetic" k2="-1" k3="1"/>
<feColorMatrix type="matrix" values="0 0 0 0 0 0 0 0 0 0 0 0 0 0 0 0 0 0 0.15 0"/>
<feBlend mode="normal" in2="shape" result="effect1_innerShadow_34_11"/>
</filter>
<filter id="filter13_i_34_11" x="10.5676" y="37" width="21.4054" height="20" filterUnits="userSpaceOnUse" color-interpolation-filters="sRGB">
<feFlood flood-opacity="0" result="BackgroundImageFix"/>
<feBlend mode="normal" in="SourceGraphic" in2="BackgroundImageFix" result="shape"/>
<feColorMatrix in="SourceAlpha" type="matrix" values="0 0 0 0 0 0 0 0 0 0 0 0 0 0 0 0 0 0 127 0" result="hardAlpha"/>
<feOffset dy="4"/>
<feGaussianBlur stdDeviation="2"/>
<feComposite in2="hardAlpha" operator="arithmetic" k2="-1" k3="1"/>
<feColorMatrix type="matrix" values="0 0 0 0 0 0 0 0 0 0 0 0 0 0 0 0 0 0 0.15 0"/>
<feBlend mode="normal" in2="shape" result="effect1_innerShadow_34_11"/>
</filter>
</defs>
</svg>
