<svg width="156" height="57" viewBox="0 0 156 57" fill="currentColor" xmlns="http://www.w3.org/2000/svg">
<g filter="url(#filter0_d_36_143)">
<ellipse cx="78" cy="44" rx="74" ry="1" fill="#currentColor"/>
</g>
<g filter="url(#filter1_i_36_143)">
<path d="M120.864 44.0406L132.639 44C132.648 48.1084 130.019 51.4481 126.768 51.4593C123.516 51.4705 120.873 48.1491 120.864 44.0406Z" fill="#currentColor"/>
</g>
<g filter="url(#filter2_i_36_143)">
<path d="M134.209 44.0406L145.984 44C145.993 48.1084 143.364 51.4481 140.113 51.4593C136.861 51.4705 134.218 48.1491 134.209 44.0406Z" fill="#currentColor"/>
</g>
<g filter="url(#filter3_i_36_143)">
<path d="M64.3449 44.0406L76.1197 44C76.1286 48.1084 73.4999 51.4481 70.2483 51.4593C66.9968 51.4705 64.3537 48.1491 64.3449 44.0406Z" fill="#currentColor"/>
</g>
<g filter="url(#filter4_i_36_143)">
<path d="M51 44.0406L62.7748 44C62.7837 48.1084 60.155 51.4481 56.9035 51.4593C53.652 51.4705 51.0089 48.1491 51 44.0406Z" fill="#currentColor"/>
</g>
<g filter="url(#filter5_i_36_143)">
<rect x="46" y="8" width="105.916" height="31" rx="15" fill="#currentColor"/>
</g>
<g filter="url(#filter6_f_36_143)">
<path d="M61.548 19.9211C61.548 22.4063 63.2757 23 59.9755 23C56.6753 23 54 20.9853 54 18.5C54 16.0147 56.6753 14 59.9755 14C63.2757 14 61.548 17.4358 61.548 19.9211Z" fill="white"/>
</g>
<path d="M43 2C44.1046 2 45 2.89543 45 4V41C45 42.1046 44.1046 43 43 43H7C5.89543 43 5 42.1046 5 41V22.7871C5 22.597 5.02667 22.4071 5.08008 22.2246L10.5791 3.43848C10.8286 2.58604 11.6108 2 12.499 2H43ZM13.7383 6C13.2994 6.00013 12.9123 6.28656 12.7832 6.70605L9.39844 17.7061C9.20066 18.3489 9.68096 18.9997 10.3535 19H26C26.5523 19 27 18.5523 27 18V7C27 6.44772 26.5523 6 26 6H13.7383Z" fill="#currentColor"/>
<g filter="url(#filter7_i_36_143)">
<rect x="30" y="6" width="12" height="28" rx="1" fill="#currentColor"/>
</g>
<rect x="3" y="44" width="6" height="2" rx="1" fill="#currentColor"/>
<rect x="23" y="44" width="26" height="2" rx="1" fill="#currentColor"/>
<g filter="url(#filter8_i_36_143)">
<circle cx="16" cy="45" r="6" fill="#currentColor"/>
</g>
<rect x="46" y="40" width="108" height="6" rx="2" fill="#currentColor"/>
<rect x="94" width="11" height="7" rx="2" fill="#currentColor"/>
<defs>
<filter id="filter0_d_36_143" x="0" y="43" width="156" height="14" filterUnits="userSpaceOnUse" color-interpolation-filters="sRGB">
<feFlood flood-opacity="0" result="BackgroundImageFix"/>
<feColorMatrix in="SourceAlpha" type="matrix" values="0 0 0 0 0 0 0 0 0 0 0 0 0 0 0 0 0 0 127 0" result="hardAlpha"/>
<feOffset dy="8"/>
<feGaussianBlur stdDeviation="2"/>
<feComposite in2="hardAlpha" operator="out"/>
<feColorMatrix type="matrix" values="0 0 0 0 0 0 0 0 0 0 0 0 0 0 0 0 0 0 0.45 0"/>
<feBlend mode="normal" in2="BackgroundImageFix" result="effect1_dropShadow_36_143"/>
<feBlend mode="normal" in="SourceGraphic" in2="effect1_dropShadow_36_143" result="shape"/>
</filter>
<filter id="filter1_i_36_143" x="120.864" y="44" width="11.7749" height="10.4593" filterUnits="userSpaceOnUse" color-interpolation-filters="sRGB">
<feFlood flood-opacity="0" result="BackgroundImageFix"/>
<feBlend mode="normal" in="SourceGraphic" in2="BackgroundImageFix" result="shape"/>
<feColorMatrix in="SourceAlpha" type="matrix" values="0 0 0 0 0 0 0 0 0 0 0 0 0 0 0 0 0 0 127 0" result="hardAlpha"/>
<feOffset dy="3"/>
<feGaussianBlur stdDeviation="2"/>
<feComposite in2="hardAlpha" operator="arithmetic" k2="-1" k3="1"/>
<feColorMatrix type="matrix" values="0 0 0 0 0 0 0 0 0 0 0 0 0 0 0 0 0 0 0.25 0"/>
<feBlend mode="normal" in2="shape" result="effect1_innerShadow_36_143"/>
</filter>
<filter id="filter2_i_36_143" x="134.209" y="44" width="11.7749" height="10.4593" filterUnits="userSpaceOnUse" color-interpolation-filters="sRGB">
<feFlood flood-opacity="0" result="BackgroundImageFix"/>
<feBlend mode="normal" in="SourceGraphic" in2="BackgroundImageFix" result="shape"/>
<feColorMatrix in="SourceAlpha" type="matrix" values="0 0 0 0 0 0 0 0 0 0 0 0 0 0 0 0 0 0 127 0" result="hardAlpha"/>
<feOffset dy="3"/>
<feGaussianBlur stdDeviation="2"/>
<feComposite in2="hardAlpha" operator="arithmetic" k2="-1" k3="1"/>
<feColorMatrix type="matrix" values="0 0 0 0 0 0 0 0 0 0 0 0 0 0 0 0 0 0 0.25 0"/>
<feBlend mode="normal" in2="shape" result="effect1_innerShadow_36_143"/>
</filter>
<filter id="filter3_i_36_143" x="64.3449" y="44" width="11.7748" height="10.4593" filterUnits="userSpaceOnUse" color-interpolation-filters="sRGB">
<feFlood flood-opacity="0" result="BackgroundImageFix"/>
<feBlend mode="normal" in="SourceGraphic" in2="BackgroundImageFix" result="shape"/>
<feColorMatrix in="SourceAlpha" type="matrix" values="0 0 0 0 0 0 0 0 0 0 0 0 0 0 0 0 0 0 127 0" result="hardAlpha"/>
<feOffset dy="3"/>
<feGaussianBlur stdDeviation="2"/>
<feComposite in2="hardAlpha" operator="arithmetic" k2="-1" k3="1"/>
<feColorMatrix type="matrix" values="0 0 0 0 0 0 0 0 0 0 0 0 0 0 0 0 0 0 0.25 0"/>
<feBlend mode="normal" in2="shape" result="effect1_innerShadow_36_143"/>
</filter>
<filter id="filter4_i_36_143" x="51" y="44" width="11.7748" height="10.4593" filterUnits="userSpaceOnUse" color-interpolation-filters="sRGB">
<feFlood flood-opacity="0" result="BackgroundImageFix"/>
<feBlend mode="normal" in="SourceGraphic" in2="BackgroundImageFix" result="shape"/>
<feColorMatrix in="SourceAlpha" type="matrix" values="0 0 0 0 0 0 0 0 0 0 0 0 0 0 0 0 0 0 127 0" result="hardAlpha"/>
<feOffset dy="3"/>
<feGaussianBlur stdDeviation="2"/>
<feComposite in2="hardAlpha" operator="arithmetic" k2="-1" k3="1"/>
<feColorMatrix type="matrix" values="0 0 0 0 0 0 0 0 0 0 0 0 0 0 0 0 0 0 0.25 0"/>
<feBlend mode="normal" in2="shape" result="effect1_innerShadow_36_143"/>
</filter>
<filter id="filter5_i_36_143" x="46" y="3" width="108.916" height="36" filterUnits="userSpaceOnUse" color-interpolation-filters="sRGB">
<feFlood flood-opacity="0" result="BackgroundImageFix"/>
<feBlend mode="normal" in="SourceGraphic" in2="BackgroundImageFix" result="shape"/>
<feColorMatrix in="SourceAlpha" type="matrix" values="0 0 0 0 0 0 0 0 0 0 0 0 0 0 0 0 0 0 127 0" result="hardAlpha"/>
<feOffset dx="3" dy="-5"/>
<feGaussianBlur stdDeviation="6.7"/>
<feComposite in2="hardAlpha" operator="arithmetic" k2="-1" k3="1"/>
<feColorMatrix type="matrix" values="0 0 0 0 0 0 0 0 0 0 0 0 0 0 0 0 0 0 0.3 0"/>
<feBlend mode="normal" in2="shape" result="effect1_innerShadow_36_143"/>
</filter>
<filter id="filter6_f_36_143" x="41.2" y="1.2" width="33.6" height="34.6" filterUnits="userSpaceOnUse" color-interpolation-filters="sRGB">
<feFlood flood-opacity="0" result="BackgroundImageFix"/>
<feBlend mode="normal" in="SourceGraphic" in2="BackgroundImageFix" result="shape"/>
<feGaussianBlur stdDeviation="6.4" result="effect1_foregroundBlur_36_143"/>
</filter>
<filter id="filter7_i_36_143" x="29" y="6" width="13" height="29" filterUnits="userSpaceOnUse" color-interpolation-filters="sRGB">
<feFlood flood-opacity="0" result="BackgroundImageFix"/>
<feBlend mode="normal" in="SourceGraphic" in2="BackgroundImageFix" result="shape"/>
<feColorMatrix in="SourceAlpha" type="matrix" values="0 0 0 0 0 0 0 0 0 0 0 0 0 0 0 0 0 0 127 0" result="hardAlpha"/>
<feOffset dx="-1" dy="1"/>
<feGaussianBlur stdDeviation="2"/>
<feComposite in2="hardAlpha" operator="arithmetic" k2="-1" k3="1"/>
<feColorMatrix type="matrix" values="0 0 0 0 0 0 0 0 0 0 0 0 0 0 0 0 0 0 0.15 0"/>
<feBlend mode="normal" in2="shape" result="effect1_innerShadow_36_143"/>
</filter>
<filter id="filter8_i_36_143" x="10" y="39" width="12" height="12" filterUnits="userSpaceOnUse" color-interpolation-filters="sRGB">
<feFlood flood-opacity="0" result="BackgroundImageFix"/>
<feBlend mode="normal" in="SourceGraphic" in2="BackgroundImageFix" result="shape"/>
<feColorMatrix in="SourceAlpha" type="matrix" values="0 0 0 0 0 0 0 0 0 0 0 0 0 0 0 0 0 0 127 0" result="hardAlpha"/>
<feOffset/>
<feGaussianBlur stdDeviation="1.85"/>
<feComposite in2="hardAlpha" operator="arithmetic" k2="-1" k3="1"/>
<feColorMatrix type="matrix" values="0 0 0 0 0 0 0 0 0 0 0 0 0 0 0 0 0 0 0.25 0"/>
<feBlend mode="normal" in2="shape" result="effect1_innerShadow_36_143"/>
</filter>
</defs>
</svg>
